<mxfile host="app.diagrams.net" modified="2024-07-15T18:34:48.740Z" agent="Mozilla/5.0 (Windows NT 10.0; Win64; x64) AppleWebKit/537.36 (KHTML, like Gecko) Chrome/125.0.0.0 Safari/537.36" etag="tM7re4LoQeVeib1XUR00" version="24.3.1" type="device">
  <diagram name="Page-1" id="YhrDj4EqqzNOObndUcCF">
    <mxGraphModel dx="2074" dy="1106" grid="1" gridSize="10" guides="1" tooltips="1" connect="1" arrows="1" fold="1" page="1" pageScale="1" pageWidth="1100" pageHeight="850" math="0" shadow="0">
      <root>
        <mxCell id="0" />
        <mxCell id="1" parent="0" />
        <mxCell id="dJJZw6qjZPmMSq9XZiXV-1" value="" style="rounded=0;whiteSpace=wrap;html=1;movable=0;resizable=0;rotatable=0;deletable=0;editable=0;locked=1;connectable=0;" vertex="1" parent="1">
          <mxGeometry width="1100" height="850" as="geometry" />
        </mxCell>
        <mxCell id="dJJZw6qjZPmMSq9XZiXV-3" value="Transfer from: [ACCOUNT NAME]" style="rounded=1;whiteSpace=wrap;html=1;" vertex="1" parent="1">
          <mxGeometry x="160" y="150" width="220" height="40" as="geometry" />
        </mxCell>
        <mxCell id="dJJZw6qjZPmMSq9XZiXV-4" value="Transfer to: [ACCOUNT NAME]" style="rounded=1;whiteSpace=wrap;html=1;" vertex="1" parent="1">
          <mxGeometry x="440" y="150" width="220" height="40" as="geometry" />
        </mxCell>
        <mxCell id="dJJZw6qjZPmMSq9XZiXV-5" value="Transfer on: [DATE]" style="rounded=1;whiteSpace=wrap;html=1;" vertex="1" parent="1">
          <mxGeometry x="440" y="210" width="220" height="40" as="geometry" />
        </mxCell>
        <mxCell id="dJJZw6qjZPmMSq9XZiXV-6" value="Note on transfer: [OPTIONAL]" style="rounded=1;whiteSpace=wrap;html=1;" vertex="1" parent="1">
          <mxGeometry x="720" y="210" width="220" height="40" as="geometry" />
        </mxCell>
        <mxCell id="dJJZw6qjZPmMSq9XZiXV-8" value="Amount: [DOLLAR AMOUNT]" style="rounded=1;whiteSpace=wrap;html=1;" vertex="1" parent="1">
          <mxGeometry x="720" y="150" width="220" height="40" as="geometry" />
        </mxCell>
        <mxCell id="dJJZw6qjZPmMSq9XZiXV-9" value="TRANSFER" style="rounded=1;whiteSpace=wrap;html=1;" vertex="1" parent="1">
          <mxGeometry x="440" y="384" width="220" height="40" as="geometry" />
        </mxCell>
        <mxCell id="dJJZw6qjZPmMSq9XZiXV-11" value="" style="endArrow=none;html=1;rounded=0;" edge="1" parent="1">
          <mxGeometry width="50" height="50" relative="1" as="geometry">
            <mxPoint y="425" as="sourcePoint" />
            <mxPoint y="425" as="targetPoint" />
            <Array as="points">
              <mxPoint x="1100" y="425" />
            </Array>
          </mxGeometry>
        </mxCell>
        <mxCell id="dJJZw6qjZPmMSq9XZiXV-12" value="TRANSFER HISTORY" style="rounded=0;whiteSpace=wrap;html=1;" vertex="1" parent="1">
          <mxGeometry y="425" width="1100" height="60" as="geometry" />
        </mxCell>
        <mxCell id="dJJZw6qjZPmMSq9XZiXV-13" value="Transfer Date" style="text;html=1;align=center;verticalAlign=middle;whiteSpace=wrap;rounded=0;" vertex="1" parent="1">
          <mxGeometry x="130" y="500" width="100" height="30" as="geometry" />
        </mxCell>
        <mxCell id="dJJZw6qjZPmMSq9XZiXV-14" value="Status" style="text;html=1;align=center;verticalAlign=middle;whiteSpace=wrap;rounded=0;" vertex="1" parent="1">
          <mxGeometry x="340" y="500" width="60" height="30" as="geometry" />
        </mxCell>
        <mxCell id="dJJZw6qjZPmMSq9XZiXV-15" value="Transfer From" style="text;html=1;align=center;verticalAlign=middle;whiteSpace=wrap;rounded=0;" vertex="1" parent="1">
          <mxGeometry x="510" y="500" width="100" height="30" as="geometry" />
        </mxCell>
        <mxCell id="dJJZw6qjZPmMSq9XZiXV-16" value="Transfer To" style="text;html=1;align=center;verticalAlign=middle;whiteSpace=wrap;rounded=0;" vertex="1" parent="1">
          <mxGeometry x="720" y="500" width="80" height="30" as="geometry" />
        </mxCell>
        <mxCell id="dJJZw6qjZPmMSq9XZiXV-17" value="Amount" style="text;html=1;align=center;verticalAlign=middle;whiteSpace=wrap;rounded=0;" vertex="1" parent="1">
          <mxGeometry x="910" y="500" width="60" height="30" as="geometry" />
        </mxCell>
        <mxCell id="dJJZw6qjZPmMSq9XZiXV-21" value="2024, 01, 01" style="text;html=1;align=center;verticalAlign=middle;whiteSpace=wrap;rounded=0;" vertex="1" parent="1">
          <mxGeometry x="145" y="560" width="70" height="30" as="geometry" />
        </mxCell>
        <mxCell id="dJJZw6qjZPmMSq9XZiXV-22" value="2024, 01, 01" style="text;html=1;align=center;verticalAlign=middle;whiteSpace=wrap;rounded=0;" vertex="1" parent="1">
          <mxGeometry x="145" y="620" width="70" height="30" as="geometry" />
        </mxCell>
        <mxCell id="dJJZw6qjZPmMSq9XZiXV-23" value="2024, 01, 01" style="text;html=1;align=center;verticalAlign=middle;whiteSpace=wrap;rounded=0;" vertex="1" parent="1">
          <mxGeometry x="145" y="680" width="70" height="30" as="geometry" />
        </mxCell>
        <mxCell id="dJJZw6qjZPmMSq9XZiXV-24" value="Pending" style="text;html=1;align=center;verticalAlign=middle;whiteSpace=wrap;rounded=0;" vertex="1" parent="1">
          <mxGeometry x="340" y="560" width="60" height="30" as="geometry" />
        </mxCell>
        <mxCell id="dJJZw6qjZPmMSq9XZiXV-25" value="Denied" style="text;html=1;align=center;verticalAlign=middle;whiteSpace=wrap;rounded=0;" vertex="1" parent="1">
          <mxGeometry x="340" y="620" width="60" height="30" as="geometry" />
        </mxCell>
        <mxCell id="dJJZw6qjZPmMSq9XZiXV-26" value="Complete" style="text;html=1;align=center;verticalAlign=middle;whiteSpace=wrap;rounded=0;" vertex="1" parent="1">
          <mxGeometry x="340" y="680" width="60" height="30" as="geometry" />
        </mxCell>
        <mxCell id="dJJZw6qjZPmMSq9XZiXV-27" value="Account A" style="text;html=1;align=center;verticalAlign=middle;whiteSpace=wrap;rounded=0;" vertex="1" parent="1">
          <mxGeometry x="530" y="560" width="60" height="30" as="geometry" />
        </mxCell>
        <mxCell id="dJJZw6qjZPmMSq9XZiXV-28" value="Account B" style="text;html=1;align=center;verticalAlign=middle;whiteSpace=wrap;rounded=0;" vertex="1" parent="1">
          <mxGeometry x="530" y="620" width="60" height="30" as="geometry" />
        </mxCell>
        <mxCell id="dJJZw6qjZPmMSq9XZiXV-29" value="Account A" style="text;html=1;align=center;verticalAlign=middle;whiteSpace=wrap;rounded=0;" vertex="1" parent="1">
          <mxGeometry x="530" y="680" width="60" height="30" as="geometry" />
        </mxCell>
        <mxCell id="dJJZw6qjZPmMSq9XZiXV-30" value="Account B" style="text;html=1;align=center;verticalAlign=middle;whiteSpace=wrap;rounded=0;" vertex="1" parent="1">
          <mxGeometry x="730" y="680" width="60" height="30" as="geometry" />
        </mxCell>
        <mxCell id="dJJZw6qjZPmMSq9XZiXV-31" value="Account A" style="text;html=1;align=center;verticalAlign=middle;whiteSpace=wrap;rounded=0;" vertex="1" parent="1">
          <mxGeometry x="730" y="620" width="60" height="30" as="geometry" />
        </mxCell>
        <mxCell id="dJJZw6qjZPmMSq9XZiXV-32" value="Account B" style="text;html=1;align=center;verticalAlign=middle;whiteSpace=wrap;rounded=0;" vertex="1" parent="1">
          <mxGeometry x="730" y="560" width="60" height="30" as="geometry" />
        </mxCell>
        <mxCell id="dJJZw6qjZPmMSq9XZiXV-33" value="$" style="text;html=1;align=center;verticalAlign=middle;whiteSpace=wrap;rounded=0;" vertex="1" parent="1">
          <mxGeometry x="910" y="560" width="60" height="30" as="geometry" />
        </mxCell>
        <mxCell id="dJJZw6qjZPmMSq9XZiXV-34" value="$" style="text;html=1;align=center;verticalAlign=middle;whiteSpace=wrap;rounded=0;" vertex="1" parent="1">
          <mxGeometry x="910" y="620" width="60" height="30" as="geometry" />
        </mxCell>
        <mxCell id="dJJZw6qjZPmMSq9XZiXV-35" value="$" style="text;html=1;align=center;verticalAlign=middle;whiteSpace=wrap;rounded=0;" vertex="1" parent="1">
          <mxGeometry x="910" y="680" width="60" height="30" as="geometry" />
        </mxCell>
        <mxCell id="dJJZw6qjZPmMSq9XZiXV-36" value="&lt;font style=&quot;font-size: 20px;&quot;&gt;&lt;b&gt;Account Transfer&lt;/b&gt;&lt;/font&gt;" style="text;html=1;align=center;verticalAlign=middle;whiteSpace=wrap;rounded=0;" vertex="1" parent="1">
          <mxGeometry x="475" y="30" width="170" height="30" as="geometry" />
        </mxCell>
      </root>
    </mxGraphModel>
  </diagram>
</mxfile>
